<svg version="1" xmlns="http://www.w3.org/2000/svg" width="682.667" height="682.667" viewBox="0 0 512.000000 512.000000"><path d="M0 256v256h512V0H0v256zM397.7 87.9c27.7 9.9 42.6 37.1 37.8 69.3-3.6 24.2-12.3 40.8-31.4 59.9-14.9 14.8-28.3 23-46.6 28.4-16.7 5-38.9 4.5-49.8-1.2l-3-1.5-13.3 13.3c-7.4 7.4-13.4 13.8-13.4 14.4 0 .5 29 30 64.5 65.5l64.5 64.5-13.2 13.2-13.3 13.3-65-65-65-65-65 65-65 65-13.2-13.2L94 400.5l92-92 92-92-2.7-7c-2.5-6.4-2.7-8.2-2.7-21 0-12.3.4-15.1 2.8-23 5.5-18.3 14-32.7 27.6-46.8 16.6-17.3 33.8-27.5 54.5-32.2 9.5-2.2 32.3-1.4 40.2 1.4zM164.5 158l66 66-26.8 26.8-26.8 26.7-43.2-43.5c-46.8-47.1-48.7-49.4-54.5-65.8-2.4-7.1-2.6-8.9-2.6-23.2 0-14.1.2-16.2 2.7-23.5 1.4-4.4 4.2-10.6 6.1-13.8C89.1 101.6 96.7 92 97.8 92c.4 0 30.4 29.7 66.7 66z"/></svg>